<svg width="16" height="16" viewBox="0 0 16 16" fill="none" xmlns="http://www.w3.org/2000/svg">
<rect x="7.92688" y="9.6445" width="1.47379" height="3.68448" fill="white"/>
<rect x="5.34753" y="13.3286" width="6.63207" height="1.47379" fill="white"/>
<path d="M15.427 2.51178V5.02057L15.2395 5.17096L13.7659 6.34967L12.9534 7.00006V2.51178H15.427Z" stroke="white"/>
<path d="M1.90063 2.51178V5.02057L2.08813 5.17096L3.56177 6.34967L4.37427 7.00006V2.51178H1.90063Z" stroke="white"/>
<path d="M13.4535 5.59238C13.4534 8.23756 11.3086 10.3823 8.66345 10.3824C6.01817 10.3824 3.87353 8.23763 3.87341 5.59238V0.802338H13.4535V5.59238ZM8.08435 4.0582H6.21033L7.72595 5.15976L7.14685 6.94101L8.66345 5.84042L10.1791 6.94101L9.59998 5.15976L11.1156 4.0582H9.24158L8.66345 2.27597L8.08435 4.0582Z" fill="white"/>
</svg>
