<svg width="17" height="16" viewBox="0 0 17 16" fill="none" xmlns="http://www.w3.org/2000/svg">
<path d="M2.75 1.46875V4.05925C2.74997 4.10924 2.76084 4.15864 2.78185 4.20399C2.80287 4.24935 2.83353 4.28958 2.87169 4.32187L6.90869 7.73772C6.94678 7.76998 6.97738 7.81016 6.99837 7.85546C7.01936 7.90075 7.03024 7.95007 7.03024 8C7.03024 8.04992 7.01936 8.09924 6.99837 8.14454C6.97738 8.18983 6.94678 8.23001 6.90869 8.26228L2.87169 11.6781C2.83353 11.7104 2.80287 11.7506 2.78185 11.796C2.76084 11.8414 2.74997 11.8908 2.75 11.9407V14.5312C2.75 14.5764 2.75889 14.6211 2.77617 14.6628C2.79344 14.7045 2.81876 14.7424 2.85068 14.7743C2.8826 14.8062 2.9205 14.8316 2.9622 14.8488C3.00391 14.8661 3.04861 14.875 3.09375 14.875H13.4063C13.4514 14.875 13.4961 14.8661 13.5378 14.8488C13.5795 14.8316 13.6174 14.8062 13.6493 14.7743C13.6812 14.7424 13.7066 14.7045 13.7238 14.6628C13.7411 14.6211 13.75 14.5764 13.75 14.5312V11.9407C13.75 11.8908 13.7392 11.8414 13.7181 11.796C13.6971 11.7506 13.6665 11.7104 13.6283 11.6781L9.592 8.26228C9.55391 8.23001 9.52331 8.18983 9.50231 8.14454C9.48132 8.09924 9.47045 8.04992 9.47045 8C9.47045 7.95007 9.48132 7.90075 9.50231 7.85546C9.52331 7.81016 9.55391 7.76998 9.592 7.73772L13.6283 4.32187C13.6665 4.28958 13.6971 4.24935 13.7181 4.20399C13.7392 4.15864 13.75 4.10924 13.75 4.05925V1.46875C13.75 1.42361 13.7411 1.37891 13.7238 1.3372C13.7066 1.2955 13.6812 1.2576 13.6493 1.22568C13.6174 1.19376 13.5795 1.16844 13.5378 1.15117C13.4961 1.13389 13.4514 1.125 13.4063 1.125H3.09375C3.04861 1.125 3.00391 1.13389 2.9622 1.15117C2.9205 1.16844 2.8826 1.19376 2.85068 1.22568C2.81876 1.2576 2.79344 1.2955 2.77617 1.3372C2.75889 1.37891 2.75 1.42361 2.75 1.46875Z" fill="white"/>
</svg>
