<svg width="16" height="17" viewBox="0 0 16 17" fill="none" xmlns="http://www.w3.org/2000/svg">
<path d="M2 8.62158C2 9.80827 2.35189 10.9683 3.01118 11.955C3.67047 12.9417 4.60754 13.7107 5.7039 14.1649C6.80026 14.619 8.00666 14.7378 9.17054 14.5063C10.3344 14.2748 11.4035 13.7033 12.2426 12.8642C13.0818 12.0251 13.6532 10.956 13.8847 9.79212C14.1162 8.62824 13.9974 7.42184 13.5433 6.32548C13.0892 5.22912 12.3201 4.29205 11.3334 3.63276C10.3467 2.97348 9.18669 2.62158 8 2.62158C6.32263 2.62789 4.71265 3.2824 3.50667 4.44825L2 5.95492" stroke="white" stroke-width="1.33333" stroke-linecap="round" stroke-linejoin="round"/>
<path d="M2 2.62158V5.95492H5.33333" stroke="white" stroke-width="1.33333" stroke-linecap="round" stroke-linejoin="round"/>
</svg>
